<?xml version="1.0" encoding="utf-8"?>
<!-- Generator: Adobe Illustrator 15.0.0, SVG Export Plug-In . SVG Version: 6.00 Build 0)  -->
<!DOCTYPE svg PUBLIC "-//W3C//DTD SVG 1.1//EN" "http://www.w3.org/Graphics/SVG/1.1/DTD/svg11.dtd">
<svg version="1.1" id="Layer_1" xmlns="http://www.w3.org/2000/svg" xmlns:xlink="http://www.w3.org/1999/xlink" x="0px" y="0px"
	 width="255px" height="234px" viewBox="0 0 255 234" enable-background="new 0 0 255 234" xml:space="preserve">
<g id="Diff_output_1_">
	<path id="Background" fill="#242A41" d="M7.45,191.813c-1.605-0.485-2.279-1.233-1.505-1.67l106.509-60.113
		c0.774-0.437,2.702-0.399,4.309,0.087l135.703,40.998c1.605,0.484,2.278,1.232,1.505,1.669l-106.509,60.114
		c-0.774,0.437-2.702,0.398-4.31-0.088L7.45,191.813z"/>
	<path id="Combined-Shape" fill="#FF4C7F" d="M119.483,167.683C124.858,166.608,130.99,166,137.5,166c21.264,0,38.5,6.492,38.5,14.5
		c0,1.31-0.461,2.578-1.325,3.785l9.386,2.823l-40.145,22.323l-73.031-21.97l40.144-22.322L119.483,167.683z M119.483,167.683
		C107.299,170.117,99,174.943,99,180.5c0,8.008,17.237,14.5,38.5,14.5c17.786,0,32.755-4.543,37.175-10.715L119.483,167.683z"/>
</g>
<g id="Browser-window_1_" transform="translate(0.000000, 0.000000)">
	<path id="Background_2_" fill="#131830" d="M4.199,107.423c-1.605-0.485-2.279-1.232-1.505-1.669L109.203,45.64
		c0.774-0.437,2.702-0.398,4.309,0.087l135.703,40.998c1.605,0.485,2.279,1.233,1.506,1.669l-106.51,60.114
		c-0.773,0.437-2.701,0.398-4.309-0.088L4.199,107.423z"/>
	<polygon id="Rectangle" fill="#4B97FF" points="111.029,84.14 184.061,106.108 143.916,128.432 70.885,106.462 	"/>
	<path id="Outline_1_" opacity="0.27" fill="#FFFFFF" d="M252.346,86.239c-0.539-0.6-1.398-1.081-2.553-1.429L114.09,43.812
		c-1.018-0.308-2.147-0.477-3.179-0.477c-0.773,0-1.868,0.098-2.692,0.562L1.711,104.012c-0.721,0.407-1.185,1.043-1.307,1.791
		c-0.12,0.736,0.122,1.504,0.665,2.106c0.541,0.6,1.399,1.08,2.553,1.429l135.703,40.998c1.018,0.308,2.146,0.478,3.179,0.478
		c0.773,0,1.867-0.098,2.691-0.562l106.508-60.114c0.721-0.406,1.186-1.042,1.308-1.79
		C253.131,87.609,252.889,86.841,252.346,86.239z M2.554,106.57c-0.136-0.151-0.199-0.309-0.176-0.445
		c0.022-0.137,0.135-0.269,0.316-0.371L109.203,45.64c0.162-0.091,0.653-0.304,1.708-0.304c0.841,0,1.765,0.139,2.601,0.391
		l12.354,3.732l-109.302,61.7L4.2,107.423C3.151,107.106,2.719,106.752,2.554,106.57z M250.72,88.394l-106.508,60.114
		c-0.343,0.193-0.966,0.305-1.709,0.305c-0.842,0-1.765-0.14-2.601-0.392L17.227,111.359l109.302-61.7l122.686,37.065
		c1.048,0.317,1.48,0.67,1.645,0.854c0.137,0.151,0.199,0.309,0.177,0.445C251.014,88.16,250.901,88.291,250.72,88.394z"/>
	<path id="Rectangle-4" fill="#D8D8D8" fill-opacity="0.08" d="M21.604,99.085c-0.804-0.243-1.144-0.616-0.757-0.834l72.175-40.736
		c0.386-0.218,1.35-0.197,2.154,0.046l5.11,1.627c0.804,0.243,1.144,0.616,0.757,0.834l-72.175,40.736
		c-0.386,0.218-1.35,0.198-2.154-0.045L21.604,99.085z"/>
	<g id="Navigation_1_" transform="translate(9.000000, 61.000000)">
		<polygon id="Triangle" fill="#D8D8D8" fill-opacity="0.4434" points="9.56,42.014 9.63,43.75 5.532,42.511 		"/>
		<polygon id="Triangle_1_" fill="#D8D8D8" fill-opacity="0.4434" points="3.026,45.701 7.054,45.203 2.956,43.965 		"/>
	</g>
</g>
<g id="Browser-window_2_" transform="translate(0.000000, 0.000000)">
	<path id="Background_1_" fill="#131830" d="M4.199,64.423c-1.605-0.485-2.279-1.232-1.505-1.669L109.203,2.64
		c0.774-0.437,2.702-0.398,4.309,0.087l135.703,40.998c1.605,0.485,2.279,1.233,1.506,1.669l-106.51,60.114
		c-0.773,0.437-2.701,0.398-4.309-0.087L4.199,64.423z"/>
	<ellipse id="Oval" fill="#4B97FF" cx="137.5" cy="56.5" rx="38.5" ry="14.5"/>
	<path id="Outline" opacity="0.27" fill="#FFFFFF" d="M252.346,43.239c-0.539-0.6-1.398-1.081-2.553-1.429L114.09,0.812
		c-1.018-0.308-2.147-0.477-3.179-0.477c-0.773,0-1.868,0.098-2.692,0.562L1.711,61.012c-0.721,0.407-1.185,1.043-1.307,1.791
		c-0.12,0.736,0.122,1.504,0.665,2.106c0.541,0.6,1.399,1.08,2.553,1.429l135.703,40.998c1.018,0.308,2.146,0.477,3.178,0.477
		c0.773,0,1.868-0.098,2.692-0.562l106.508-60.114c0.721-0.406,1.186-1.042,1.308-1.79
		C253.131,44.609,252.889,43.841,252.346,43.239z M2.554,63.57c-0.136-0.151-0.199-0.309-0.176-0.445
		c0.022-0.137,0.135-0.269,0.316-0.371L109.203,2.64c0.162-0.091,0.653-0.304,1.708-0.304c0.841,0,1.765,0.139,2.601,0.391
		l12.336,3.727L16.529,68.148L4.2,64.423C3.151,64.106,2.719,63.752,2.554,63.57z M250.72,45.394l-106.508,60.114
		c-0.162,0.092-0.654,0.305-1.71,0.305c-0.841,0-1.765-0.139-2.6-0.391L17.192,68.349L126.511,6.654l122.704,37.07
		c1.048,0.317,1.48,0.67,1.645,0.854c0.137,0.151,0.199,0.309,0.177,0.445C251.014,45.16,250.901,45.291,250.72,45.394z"/>
	<path id="Address_bar" fill="#D8D8D8" fill-opacity="0.08" d="M21.604,56.085c-0.804-0.243-1.144-0.616-0.757-0.834l72.175-40.736
		c0.386-0.218,1.35-0.197,2.154,0.046l5.11,1.627c0.804,0.243,1.144,0.616,0.757,0.834L28.869,57.757
		c-0.386,0.218-1.35,0.198-2.154-0.045L21.604,56.085z"/>
	<g id="Navigation" transform="translate(9.000000, 61.000000)">
		<polygon id="Triangle_2_" fill="#D8D8D8" fill-opacity="0.4434" points="9.56,-0.986 9.63,0.75 5.532,-0.489 		"/>
		<polygon id="Triangle_3_" fill="#D8D8D8" fill-opacity="0.4434" points="3.026,2.701 7.054,2.203 2.956,0.965 		"/>
	</g>
	<ellipse id="Close_button" fill="#FF4C7F" cx="112.695" cy="7.581" rx="2.825" ry="1.166"/>
</g>
</svg>
