<?xml version="1.0" encoding="utf-8"?>
<!-- Generator: Adobe Illustrator 15.0.0, SVG Export Plug-In . SVG Version: 6.00 Build 0)  -->
<!DOCTYPE svg PUBLIC "-//W3C//DTD SVG 1.1//EN" "http://www.w3.org/Graphics/SVG/1.1/DTD/svg11.dtd">
<svg version="1.1" id="Layer_1" xmlns="http://www.w3.org/2000/svg" xmlns:xlink="http://www.w3.org/1999/xlink" x="0px" y="0px"
	 width="402px" height="210px" viewBox="0 0 402 210" enable-background="new 0 0 402 210" xml:space="preserve">
<title>Group 4</title>
<desc>Created with Sketch.</desc>
<g id="Landing">
	<g id="Artboard" transform="translate(-255.000000, -280.000000)">
		<g id="Group-4" transform="translate(255.000000, 280.000000)">
			<g id="Browser-window" transform="translate(0.000000, 0.625000)">
				<path fill="#131830" d="M4,2.375c-1.103,0-2,0.897-2,2v129c0,1.103,0.897,2,2,2h210c1.103,0,2-0.897,2-2v-129
					c0-1.103-0.897-2-2-2H4z"/>
				<g id="Rectangle-3">
					<g>
						<path fill="#525668" d="M214,137.375H4c-2.206,0-4-1.794-4-4v-129c0-2.206,1.794-4,4-4h210c2.206,0,4,1.794,4,4v129
							C218,135.581,216.206,137.375,214,137.375z M4,2.375c-1.103,0-2,0.897-2,2v129c0,1.103,0.897,2,2,2h210c1.103,0,2-0.897,2-2
							v-129c0-1.103-0.897-2-2-2H4z"/>
					</g>
				</g>
				<g id="Line" opacity="0.4057">
					<rect x="0.55" y="14.375" fill="#FFFFFF" width="217.355" height="1"/>
				</g>
				<g id="Line_1_" opacity="0.4057">
					<rect x="0.5" y="85.375" fill="#FFFFFF" width="217" height="1"/>
				</g>
				<g id="Line_2_" opacity="0.4057">
					<rect x="0.5" y="92.375" fill="#FFFFFF" width="217" height="1"/>
				</g>
				<g id="Rectangle-4">
					<path fill="#22273D" d="M28.247,5.894c0-0.77,0.624-1.394,1.408-1.394h144.178c0.777,0,1.408,0.628,1.408,1.394v4.213
						c0,0.77-0.624,1.394-1.408,1.394H29.655c-0.777,0-1.408-0.628-1.408-1.394V5.894z"/>
				</g>
				<g id="Triangle" opacity="0.44">
					<polygon fill="#D8D8D8" points="21.563,8.174 17.61,10.151 17.61,6.197 					"/>
				</g>
				<g id="Triangle_1_" opacity="0.44">
					<polygon fill="#D8D8D8" points="8.51,8.174 12.463,10.151 12.463,6.197 					"/>
				</g>
			</g>
			<g id="Rectangle-5">
				<rect x="125" y="86" fill="#4C97FF" width="24" height="8"/>
			</g>
			<g id="Oval-3">
				<path fill="#979797" d="M143.795,159.215c-24.976,0-45.295-20.319-45.295-45.295s20.319-45.295,45.295-45.295
					c24.976,0,45.295,20.319,45.295,45.295S168.771,159.215,143.795,159.215z M143.795,69.625
					c-24.424,0-44.295,19.871-44.295,44.295c0,24.424,19.871,44.295,44.295,44.295c24.425,0,44.295-19.871,44.295-44.295
					C188.09,89.496,168.22,69.625,143.795,69.625z"/>
			</g>
			<g id="Line_3_" opacity="0.2535" enable-background="new    ">
				<polygon fill="#979797" points="126.243,73.159 125.841,72.243 262.009,12.545 262.41,13.461 261.953,13.662 				"/>
			</g>
			<g id="Line_4_" opacity="0.2535" enable-background="new    ">
				
					<rect x="124.902" y="179.593" transform="matrix(0.946 0.3242 -0.3242 0.946 69.1262 -54.7106)" fill="#979797" width="147.694" height="0.999"/>
			</g>
			<g id="Group-7" transform="translate(184.000000, 5.000000)">
				<g id="Combined-Shape_1_">
					<path fill="#131830" d="M36.9,166.589C22.587,149.1,14,126.744,14,102.383C14,46.356,59.419,0.937,115.445,0.937
						c56.027,0,101.446,45.419,101.446,101.446c0,24.361-8.587,46.717-22.899,64.206H36.9z"/>
				</g>
				<g>
					<path fill="#525668" d="M23.613,64.196h1.152l1.373-4.248h0.025l1.506,4.248h1.092l1.836-5.688h-1.152l-1.211,4.248H28.21
						l-1.44-4.248h-1.152l-1.361,4.248h-0.024l-0.886-2.945c-0.23,0.499-0.458,0.999-0.681,1.502L23.613,64.196z"/>
					<path fill="#525668" d="M31.258,61.353c0-0.416,0.078-0.805,0.233-1.164c0.156-0.36,0.37-0.676,0.642-0.948
						c0.272-0.271,0.592-0.486,0.961-0.642c0.367-0.156,0.764-0.234,1.188-0.234s0.82,0.078,1.188,0.234
						c0.369,0.155,0.688,0.37,0.961,0.642c0.271,0.272,0.486,0.588,0.642,0.948c0.155,0.359,0.233,0.748,0.233,1.164
						s-0.078,0.806-0.233,1.17s-0.37,0.68-0.642,0.948c-0.272,0.268-0.592,0.479-0.961,0.636c-0.367,0.156-0.764,0.233-1.188,0.233
						s-0.82-0.077-1.188-0.233c-0.369-0.156-0.688-0.368-0.961-0.636c-0.271-0.269-0.485-0.584-0.642-0.948
						C31.336,62.158,31.258,61.769,31.258,61.353z M32.409,61.353c0,0.288,0.044,0.554,0.132,0.798s0.212,0.452,0.372,0.624
						s0.356,0.308,0.589,0.408c0.231,0.1,0.491,0.149,0.779,0.149s0.548-0.05,0.78-0.149c0.231-0.101,0.428-0.236,0.588-0.408
						c0.159-0.172,0.284-0.38,0.372-0.624s0.132-0.51,0.132-0.798s-0.044-0.554-0.132-0.798s-0.213-0.452-0.372-0.624
						c-0.16-0.172-0.356-0.309-0.588-0.408c-0.232-0.101-0.492-0.15-0.78-0.15s-0.548,0.05-0.779,0.15
						c-0.232,0.1-0.429,0.236-0.589,0.408s-0.284,0.38-0.372,0.624S32.409,61.064,32.409,61.353z"/>
					<path fill="#525668" d="M38.661,58.508h1.08v0.877h0.024c0.072-0.152,0.168-0.29,0.287-0.414
						c0.121-0.124,0.254-0.23,0.402-0.318s0.311-0.158,0.486-0.21s0.352-0.078,0.527-0.078s0.336,0.024,0.48,0.072l-0.048,1.164
						c-0.089-0.024-0.177-0.044-0.265-0.061c-0.088-0.016-0.176-0.023-0.264-0.023c-0.527,0-0.932,0.147-1.212,0.443
						c-0.28,0.297-0.42,0.756-0.42,1.38v2.856h-1.08V58.508z"/>
					<path fill="#525668" d="M43.102,55.124h1.08v5.856l2.447-2.46h1.5l-2.652,2.58l2.881,3.096h-1.536l-2.64-2.952v2.952h-1.08
						V55.124z"/>
				</g>
				<g enable-background="new    ">
					<g>
						<path fill="#525668" d="M164.29,62.42c0.208,0.312,0.474,0.542,0.798,0.69s0.658,0.222,1.002,0.222
							c0.191,0,0.388-0.029,0.588-0.09c0.199-0.06,0.382-0.149,0.546-0.27s0.298-0.269,0.402-0.444
							c0.104-0.176,0.155-0.38,0.155-0.612c0-0.328-0.104-0.577-0.312-0.75c-0.208-0.172-0.466-0.315-0.774-0.432
							c-0.308-0.116-0.644-0.229-1.008-0.336c-0.363-0.108-0.699-0.258-1.008-0.45s-0.566-0.45-0.773-0.774
							c-0.209-0.323-0.312-0.762-0.312-1.313c0-0.248,0.055-0.512,0.162-0.792s0.277-0.536,0.51-0.769
							c0.232-0.231,0.53-0.426,0.895-0.581c0.363-0.156,0.802-0.234,1.313-0.234c0.464,0,0.908,0.064,1.332,0.192
							c0.425,0.128,0.796,0.388,1.116,0.779l-0.936,0.853c-0.145-0.225-0.349-0.404-0.612-0.54c-0.265-0.136-0.564-0.204-0.9-0.204
							c-0.319,0-0.586,0.042-0.798,0.126s-0.383,0.191-0.51,0.324c-0.129,0.132-0.219,0.273-0.27,0.426
							c-0.053,0.152-0.078,0.292-0.078,0.42c0,0.36,0.104,0.636,0.312,0.828c0.208,0.191,0.466,0.348,0.774,0.468
							c0.308,0.12,0.644,0.229,1.008,0.324c0.363,0.096,0.699,0.229,1.008,0.401c0.308,0.173,0.566,0.404,0.773,0.696
							c0.209,0.292,0.312,0.694,0.312,1.206c0,0.408-0.078,0.776-0.234,1.104s-0.365,0.604-0.63,0.827
							c-0.264,0.225-0.575,0.396-0.937,0.517c-0.359,0.12-0.743,0.18-1.151,0.18c-0.544,0-1.06-0.096-1.548-0.288
							c-0.488-0.191-0.876-0.487-1.164-0.888L164.29,62.42z"/>
						<path fill="#525668" d="M171.25,61.748c0,0.248,0.054,0.475,0.162,0.679c0.107,0.203,0.25,0.378,0.426,0.521
							c0.176,0.145,0.38,0.256,0.611,0.336c0.232,0.08,0.473,0.12,0.721,0.12c0.336,0,0.628-0.078,0.876-0.234
							c0.247-0.155,0.476-0.361,0.684-0.617l0.816,0.624c-0.601,0.775-1.44,1.163-2.521,1.163c-0.447,0-0.854-0.075-1.218-0.228
							s-0.672-0.362-0.924-0.63c-0.252-0.269-0.446-0.584-0.582-0.948s-0.204-0.758-0.204-1.182s0.074-0.818,0.223-1.183
							c0.147-0.363,0.352-0.68,0.611-0.947c0.26-0.269,0.57-0.479,0.93-0.63c0.36-0.152,0.752-0.229,1.176-0.229
							c0.504,0,0.931,0.088,1.279,0.264c0.348,0.177,0.633,0.406,0.857,0.69c0.224,0.284,0.386,0.604,0.486,0.96
							c0.1,0.356,0.149,0.718,0.149,1.086v0.384H171.25z M174.658,60.885c-0.009-0.24-0.047-0.46-0.115-0.66
							c-0.067-0.2-0.17-0.374-0.305-0.522c-0.137-0.147-0.307-0.264-0.511-0.348s-0.442-0.126-0.714-0.126
							c-0.264,0-0.506,0.05-0.727,0.149c-0.22,0.101-0.406,0.23-0.558,0.391s-0.271,0.338-0.354,0.534
							c-0.084,0.195-0.125,0.39-0.125,0.582H174.658z"/>
						<path fill="#525668" d="M181.174,60.021c-0.2-0.208-0.41-0.366-0.631-0.475c-0.22-0.107-0.481-0.161-0.785-0.161
							c-0.297,0-0.555,0.054-0.774,0.161c-0.22,0.108-0.403,0.257-0.552,0.444c-0.148,0.188-0.26,0.404-0.336,0.648
							s-0.114,0.498-0.114,0.762s0.044,0.514,0.132,0.75s0.212,0.442,0.372,0.618s0.353,0.313,0.576,0.414
							c0.224,0.1,0.476,0.149,0.756,0.149c0.304,0,0.563-0.054,0.78-0.162c0.216-0.107,0.416-0.266,0.6-0.474l0.768,0.768
							c-0.279,0.312-0.605,0.536-0.977,0.673c-0.373,0.136-0.768,0.203-1.183,0.203c-0.44,0-0.843-0.071-1.206-0.216
							c-0.364-0.144-0.678-0.346-0.941-0.605c-0.265-0.26-0.469-0.572-0.613-0.937c-0.144-0.363-0.215-0.766-0.215-1.206
							c0-0.439,0.071-0.844,0.215-1.212c0.145-0.367,0.347-0.684,0.606-0.948c0.261-0.264,0.572-0.47,0.937-0.617
							c0.363-0.148,0.77-0.223,1.218-0.223c0.415,0,0.813,0.074,1.194,0.223c0.379,0.147,0.709,0.374,0.99,0.678L181.174,60.021z"/>
						<path fill="#525668" d="M187.93,64.196h-1.08V63.32h-0.023c-0.137,0.304-0.373,0.55-0.709,0.738
							c-0.336,0.188-0.724,0.281-1.164,0.281c-0.279,0-0.543-0.042-0.791-0.126s-0.467-0.214-0.654-0.39s-0.338-0.402-0.45-0.678
							c-0.112-0.276-0.168-0.603-0.168-0.979v-3.66h1.08v3.36c0,0.264,0.036,0.49,0.108,0.678c0.072,0.188,0.168,0.341,0.287,0.456
							c0.121,0.116,0.258,0.2,0.414,0.252c0.156,0.053,0.318,0.078,0.486,0.078c0.225,0,0.432-0.036,0.624-0.107
							c0.192-0.072,0.36-0.187,0.504-0.343c0.144-0.155,0.257-0.354,0.336-0.594c0.08-0.24,0.12-0.523,0.12-0.852v-2.929h1.08
							V64.196z"/>
						<path fill="#525668" d="M189.562,58.508h1.08v0.877h0.024c0.072-0.152,0.168-0.29,0.287-0.414
							c0.121-0.124,0.254-0.23,0.402-0.318s0.311-0.158,0.486-0.21s0.352-0.078,0.527-0.078s0.336,0.024,0.48,0.072l-0.048,1.164
							c-0.089-0.024-0.177-0.044-0.265-0.061c-0.088-0.016-0.176-0.023-0.264-0.023c-0.527,0-0.932,0.147-1.212,0.443
							c-0.28,0.297-0.42,0.756-0.42,1.38v2.856h-1.08V58.508z"/>
						<path fill="#525668" d="M193.834,56.469c0-0.217,0.078-0.402,0.233-0.559c0.156-0.156,0.343-0.233,0.558-0.233
							c0.217,0,0.402,0.077,0.559,0.233s0.234,0.342,0.234,0.559c0,0.216-0.078,0.401-0.234,0.558s-0.342,0.234-0.559,0.234
							c-0.215,0-0.401-0.078-0.558-0.234C193.912,56.87,193.834,56.685,193.834,56.469z M194.086,58.508h1.08v5.688h-1.08V58.508z"
							/>
						<path fill="#525668" d="M199.93,59.444h-1.549v2.58c0,0.16,0.004,0.318,0.013,0.474c0.008,0.156,0.038,0.296,0.09,0.42
							s0.132,0.225,0.24,0.301c0.108,0.075,0.266,0.113,0.474,0.113c0.128,0,0.26-0.012,0.396-0.036
							c0.136-0.023,0.26-0.067,0.371-0.132v0.984c-0.127,0.072-0.293,0.122-0.498,0.149c-0.203,0.028-0.361,0.042-0.473,0.042
							c-0.417,0-0.738-0.058-0.967-0.174c-0.229-0.115-0.396-0.266-0.504-0.45c-0.107-0.184-0.172-0.39-0.191-0.617
							c-0.021-0.229-0.031-0.458-0.031-0.69v-2.964h-1.248v-0.937h1.248v-1.596h1.08v1.596h1.549V59.444z"/>
						<path fill="#525668" d="M200.649,58.508h1.248l1.685,4.44h0.023l1.615-4.44h1.152l-2.699,6.912
							c-0.096,0.248-0.195,0.475-0.299,0.679s-0.228,0.378-0.371,0.521c-0.143,0.145-0.316,0.256-0.52,0.336s-0.452,0.12-0.747,0.12
							c-0.159,0-0.321-0.01-0.483-0.03c-0.164-0.02-0.321-0.062-0.473-0.126l0.131-0.983c0.215,0.088,0.43,0.132,0.645,0.132
							c0.166,0,0.308-0.022,0.423-0.066s0.215-0.107,0.298-0.191c0.084-0.084,0.153-0.183,0.209-0.294
							c0.056-0.112,0.111-0.24,0.167-0.385l0.35-0.899L200.649,58.508z"/>
					</g>
				</g>
			</g>
			<g id="Oval-3_1_">
				<path fill="#979797" d="M299.445,209.828C242.957,209.828,197,163.871,197,107.383C197,50.894,242.957,4.937,299.445,4.937
					c56.489,0,102.446,45.957,102.446,102.446C401.892,163.871,355.935,209.828,299.445,209.828z M299.445,6.937
					C244.06,6.937,199,51.997,199,107.383c0,55.386,45.06,100.445,100.445,100.445c55.387,0,100.446-45.06,100.446-100.445
					C399.892,51.997,354.832,6.937,299.445,6.937z"/>
			</g>
			<g id="Line_5_" opacity="0.4057">
				<rect x="215.997" y="49" fill="#FFFFFF" width="167.003" height="1"/>
			</g>
			<g id="Line_6_" opacity="0.4057">
				<rect x="202" y="79" fill="#FFFFFF" width="195.003" height="1"/>
			</g>
			<path fill="#525668" d="M220.176,169c0.792,1.017,1.604,2.016,2.434,3h153.673c0.829-0.984,1.642-1.983,2.434-3H220.176z"/>
			<g id="Rectangle-6">
				<polygon fill="#4B97FF" points="250,51 331,51 331,78 250,78 				"/>
			</g>
			<g enable-background="new    ">
				<path d="M265.29,67.42c0.208,0.312,0.474,0.542,0.798,0.69s0.658,0.222,1.002,0.222c0.191,0,0.388-0.029,0.588-0.09
					c0.199-0.06,0.382-0.149,0.546-0.27s0.298-0.269,0.402-0.444c0.104-0.176,0.155-0.38,0.155-0.612
					c0-0.328-0.104-0.577-0.312-0.75c-0.208-0.172-0.466-0.315-0.774-0.432c-0.308-0.116-0.644-0.229-1.008-0.336
					c-0.363-0.108-0.699-0.258-1.008-0.45s-0.566-0.45-0.773-0.774c-0.209-0.323-0.312-0.762-0.312-1.313
					c0-0.248,0.055-0.512,0.162-0.792s0.277-0.536,0.51-0.769c0.232-0.231,0.53-0.426,0.895-0.581
					c0.363-0.156,0.802-0.234,1.313-0.234c0.464,0,0.908,0.064,1.332,0.192c0.425,0.128,0.796,0.388,1.116,0.779l-0.936,0.853
					c-0.145-0.225-0.349-0.404-0.612-0.54c-0.265-0.136-0.564-0.204-0.9-0.204c-0.319,0-0.586,0.042-0.798,0.126
					s-0.383,0.191-0.51,0.324c-0.129,0.132-0.219,0.273-0.27,0.426c-0.053,0.152-0.078,0.292-0.078,0.42
					c0,0.36,0.104,0.636,0.312,0.828c0.208,0.191,0.466,0.348,0.774,0.468c0.308,0.12,0.644,0.229,1.008,0.324
					c0.363,0.096,0.699,0.229,1.008,0.401c0.308,0.173,0.566,0.404,0.773,0.696c0.209,0.292,0.312,0.694,0.312,1.206
					c0,0.408-0.078,0.776-0.234,1.104s-0.365,0.604-0.63,0.827c-0.264,0.225-0.575,0.396-0.937,0.517
					c-0.359,0.12-0.743,0.18-1.151,0.18c-0.544,0-1.06-0.096-1.548-0.288c-0.488-0.191-0.876-0.487-1.164-0.888L265.29,67.42z"/>
				<path d="M274.481,64.444h-1.548v2.58c0,0.16,0.004,0.318,0.012,0.474c0.008,0.156,0.038,0.296,0.09,0.42
					c0.053,0.124,0.133,0.225,0.24,0.301c0.108,0.075,0.266,0.113,0.475,0.113c0.127,0,0.26-0.012,0.396-0.036
					c0.136-0.023,0.261-0.067,0.372-0.132v0.984c-0.128,0.072-0.294,0.122-0.498,0.149c-0.203,0.028-0.361,0.042-0.474,0.042
					c-0.417,0-0.738-0.058-0.966-0.174c-0.229-0.115-0.396-0.266-0.504-0.45c-0.108-0.184-0.173-0.39-0.192-0.617
					c-0.021-0.229-0.03-0.458-0.03-0.69v-2.964h-1.248v-0.937h1.248v-1.596h1.08v1.596h1.548V64.444z"/>
				<path d="M275.201,63.508h1.248l1.685,4.44h0.024l1.615-4.44h1.152l-2.7,6.912c-0.096,0.248-0.195,0.475-0.299,0.679
					s-0.228,0.378-0.37,0.521c-0.144,0.145-0.316,0.256-0.52,0.336c-0.204,0.08-0.453,0.12-0.748,0.12
					c-0.158,0-0.32-0.01-0.483-0.03c-0.163-0.02-0.321-0.062-0.472-0.126l0.131-0.983c0.215,0.088,0.43,0.132,0.645,0.132
					c0.166,0,0.307-0.022,0.422-0.066s0.215-0.107,0.299-0.191s0.152-0.183,0.209-0.294c0.055-0.112,0.111-0.24,0.166-0.385
					l0.35-0.899L275.201,63.508z"/>
				<path d="M281.957,60.124h1.08v9.072h-1.08V60.124z"/>
				<path d="M285.569,66.748c0,0.248,0.054,0.475,0.162,0.679c0.108,0.203,0.25,0.378,0.427,0.521
					c0.176,0.145,0.379,0.256,0.611,0.336s0.472,0.12,0.72,0.12c0.337,0,0.628-0.078,0.876-0.234
					c0.248-0.155,0.477-0.361,0.684-0.617l0.816,0.624c-0.6,0.775-1.439,1.163-2.52,1.163c-0.448,0-0.854-0.075-1.219-0.228
					c-0.363-0.152-0.672-0.362-0.924-0.63c-0.252-0.269-0.445-0.584-0.582-0.948c-0.136-0.364-0.203-0.758-0.203-1.182
					s0.073-0.818,0.222-1.183c0.147-0.363,0.352-0.68,0.612-0.947c0.26-0.269,0.569-0.479,0.93-0.63
					c0.359-0.152,0.752-0.229,1.176-0.229c0.504,0,0.93,0.088,1.278,0.264c0.348,0.177,0.634,0.406,0.858,0.69
					c0.223,0.284,0.385,0.604,0.485,0.96c0.101,0.356,0.149,0.718,0.149,1.086v0.384H285.569z M288.978,65.885
					c-0.009-0.24-0.046-0.46-0.114-0.66s-0.17-0.374-0.306-0.522c-0.136-0.147-0.306-0.264-0.511-0.348
					c-0.203-0.084-0.441-0.126-0.713-0.126c-0.265,0-0.506,0.05-0.727,0.149c-0.221,0.101-0.406,0.23-0.559,0.391
					c-0.151,0.16-0.27,0.338-0.354,0.534c-0.084,0.195-0.126,0.39-0.126,0.582H288.978z"/>
				<path d="M294.449,64.937c-0.127-0.16-0.285-0.294-0.473-0.402c-0.189-0.107-0.419-0.162-0.691-0.162
					c-0.256,0-0.478,0.055-0.666,0.162c-0.188,0.108-0.281,0.267-0.281,0.474c0,0.169,0.055,0.305,0.162,0.408
					c0.107,0.104,0.236,0.188,0.384,0.252c0.147,0.064,0.306,0.112,0.474,0.145s0.312,0.06,0.433,0.084
					c0.231,0.056,0.45,0.124,0.653,0.204c0.205,0.08,0.381,0.184,0.528,0.312s0.265,0.284,0.349,0.468
					c0.084,0.185,0.125,0.408,0.125,0.673c0,0.319-0.067,0.594-0.203,0.821c-0.137,0.229-0.312,0.414-0.528,0.559
					c-0.216,0.144-0.462,0.248-0.737,0.312c-0.277,0.064-0.555,0.096-0.834,0.096c-0.473,0-0.887-0.071-1.242-0.216
					c-0.356-0.144-0.675-0.408-0.955-0.792l0.816-0.672c0.176,0.176,0.372,0.332,0.588,0.468c0.217,0.137,0.48,0.204,0.793,0.204
					c0.135,0,0.273-0.014,0.413-0.042c0.14-0.027,0.265-0.071,0.372-0.132c0.107-0.06,0.196-0.136,0.264-0.228
					c0.068-0.092,0.103-0.198,0.103-0.318c0-0.16-0.05-0.292-0.149-0.396c-0.101-0.104-0.221-0.186-0.361-0.245
					c-0.139-0.061-0.287-0.108-0.443-0.145s-0.294-0.065-0.414-0.09c-0.232-0.056-0.452-0.12-0.66-0.192
					c-0.208-0.071-0.392-0.168-0.552-0.288c-0.16-0.119-0.288-0.271-0.384-0.456c-0.096-0.184-0.145-0.411-0.145-0.684
					c0-0.296,0.062-0.554,0.187-0.773c0.124-0.221,0.288-0.402,0.491-0.547c0.205-0.144,0.437-0.252,0.697-0.323
					c0.26-0.072,0.521-0.108,0.785-0.108c0.385,0,0.752,0.072,1.104,0.216c0.353,0.145,0.633,0.384,0.841,0.72L294.449,64.937z"/>
				<path d="M296.777,64.204c0.305-0.279,0.656-0.49,1.057-0.63c0.399-0.14,0.799-0.21,1.199-0.21c0.416,0,0.774,0.052,1.074,0.156
					c0.301,0.104,0.546,0.244,0.738,0.42c0.191,0.176,0.334,0.378,0.426,0.605c0.092,0.229,0.139,0.467,0.139,0.715v2.903
					c0,0.2,0.004,0.384,0.012,0.552c0.008,0.169,0.02,0.328,0.035,0.48h-0.959c-0.024-0.288-0.037-0.576-0.037-0.864h-0.023
					c-0.24,0.368-0.523,0.628-0.852,0.78s-0.709,0.228-1.141,0.228c-0.264,0-0.516-0.035-0.756-0.107s-0.45-0.18-0.63-0.324
					c-0.181-0.144-0.322-0.322-0.427-0.534c-0.104-0.212-0.155-0.458-0.155-0.737c0-0.368,0.082-0.677,0.246-0.925
					c0.163-0.247,0.388-0.449,0.672-0.605s0.616-0.269,0.996-0.336c0.38-0.068,0.786-0.103,1.218-0.103h0.792v-0.239
					c0-0.145-0.028-0.288-0.084-0.433c-0.056-0.144-0.14-0.273-0.252-0.39s-0.252-0.208-0.42-0.276
					c-0.168-0.067-0.368-0.102-0.601-0.102c-0.207,0-0.39,0.02-0.545,0.06c-0.156,0.04-0.299,0.09-0.426,0.15
					c-0.129,0.06-0.244,0.13-0.349,0.21s-0.204,0.156-0.3,0.228L296.777,64.204z M299.826,66.46c-0.257,0-0.519,0.015-0.787,0.042
					c-0.268,0.028-0.512,0.082-0.731,0.162s-0.4,0.192-0.54,0.336c-0.141,0.145-0.21,0.328-0.21,0.553
					c0,0.328,0.11,0.563,0.33,0.708c0.22,0.144,0.518,0.216,0.894,0.216c0.296,0,0.549-0.05,0.756-0.15
					c0.209-0.1,0.377-0.229,0.504-0.39c0.129-0.16,0.221-0.338,0.276-0.534s0.084-0.39,0.084-0.582v-0.36H299.826z"/>
				<path d="M308.682,69.148c0,0.432-0.074,0.826-0.223,1.182c-0.147,0.356-0.357,0.664-0.629,0.924
					c-0.272,0.261-0.601,0.462-0.984,0.606c-0.385,0.144-0.809,0.216-1.271,0.216c-0.545,0-1.043-0.076-1.494-0.228
					c-0.453-0.152-0.883-0.416-1.291-0.792l0.732-0.912c0.279,0.304,0.584,0.534,0.912,0.689c0.328,0.156,0.699,0.234,1.115,0.234
					c0.4,0,0.732-0.059,0.996-0.174c0.265-0.116,0.475-0.267,0.631-0.45c0.156-0.185,0.266-0.395,0.33-0.63
					c0.063-0.236,0.096-0.475,0.096-0.714v-0.84h-0.036c-0.208,0.344-0.49,0.598-0.846,0.762c-0.356,0.164-0.73,0.246-1.122,0.246
					c-0.416,0-0.803-0.074-1.158-0.223c-0.355-0.147-0.662-0.352-0.918-0.611s-0.456-0.568-0.6-0.924
					c-0.145-0.356-0.217-0.742-0.217-1.158s0.068-0.806,0.205-1.17c0.135-0.364,0.33-0.683,0.582-0.954
					c0.252-0.272,0.555-0.484,0.911-0.636c0.356-0.152,0.754-0.229,1.194-0.229c0.384,0,0.758,0.084,1.122,0.252
					s0.649,0.404,0.858,0.708h0.023v-0.816h1.08V69.148z M305.729,64.372c-0.288,0-0.548,0.05-0.78,0.15
					c-0.232,0.1-0.428,0.236-0.588,0.408s-0.283,0.38-0.371,0.624c-0.089,0.244-0.133,0.51-0.133,0.798
					c0,0.576,0.168,1.038,0.504,1.386s0.792,0.522,1.368,0.522s1.032-0.175,1.368-0.522s0.504-0.81,0.504-1.386
					c0-0.288-0.044-0.554-0.132-0.798c-0.089-0.244-0.212-0.452-0.372-0.624s-0.355-0.309-0.588-0.408
					C306.277,64.422,306.018,64.372,305.729,64.372z"/>
				<path d="M311.129,66.748c0,0.248,0.055,0.475,0.162,0.679c0.108,0.203,0.25,0.378,0.427,0.521
					c0.176,0.145,0.38,0.256,0.612,0.336c0.231,0.08,0.471,0.12,0.719,0.12c0.337,0,0.629-0.078,0.877-0.234
					c0.248-0.155,0.476-0.361,0.684-0.617l0.816,0.624c-0.6,0.775-1.44,1.163-2.52,1.163c-0.449,0-0.855-0.075-1.219-0.228
					c-0.364-0.152-0.672-0.362-0.924-0.63c-0.252-0.269-0.446-0.584-0.582-0.948c-0.137-0.364-0.204-0.758-0.204-1.182
					s0.073-0.818,0.222-1.183c0.148-0.363,0.352-0.68,0.612-0.947c0.26-0.269,0.569-0.479,0.931-0.63
					c0.359-0.152,0.752-0.229,1.176-0.229c0.504,0,0.93,0.088,1.277,0.264c0.348,0.177,0.635,0.406,0.858,0.69
					s0.386,0.604,0.485,0.96c0.101,0.356,0.15,0.718,0.15,1.086v0.384H311.129z M314.537,65.885c-0.008-0.24-0.046-0.46-0.113-0.66
					c-0.068-0.2-0.17-0.374-0.307-0.522c-0.136-0.147-0.306-0.264-0.51-0.348s-0.441-0.126-0.714-0.126
					c-0.265,0-0.506,0.05-0.726,0.149c-0.221,0.101-0.406,0.23-0.559,0.391s-0.27,0.338-0.354,0.534
					c-0.084,0.195-0.127,0.39-0.127,0.582H314.537z"/>
			</g>
			<g id="Oval-4">
				<circle fill="#FF4C7F" cx="207.98" cy="8.895" r="3"/>
			</g>
		</g>
	</g>
</g>
</svg>
