<?xml version="1.0" encoding="utf-8"?>
<!-- Generator: Adobe Illustrator 15.0.0, SVG Export Plug-In . SVG Version: 6.00 Build 0)  -->
<!DOCTYPE svg PUBLIC "-//W3C//DTD SVG 1.1//EN" "http://www.w3.org/Graphics/SVG/1.1/DTD/svg11.dtd">
<svg version="1.1" id="Layer_1" xmlns="http://www.w3.org/2000/svg" xmlns:xlink="http://www.w3.org/1999/xlink" x="0px" y="0px"
	 width="402px" height="210px" viewBox="0 0 402 210" enable-background="new 0 0 402 210" xml:space="preserve">
<g id="Browser-window" transform="translate(0.000000, 0.625000)">
	<path fill="#131830" d="M4,2.375c-1.103,0-2,0.897-2,2v129c0,1.104,0.897,2,2,2h210c1.104,0,2-0.896,2-2v-129c0-1.103-0.896-2-2-2
		H4z"/>
	<path fill="#525668" d="M214,0.375H4c-2.206,0-4,1.794-4,4v129c0,2.206,1.794,4,4,4h210c2.206,0,4-1.794,4-4v-129
		C218,2.169,216.206,0.375,214,0.375z M4,2.375h210c1.104,0,2,0.897,2,2v10H2v-10C2,3.272,2.897,2.375,4,2.375z M2,85.375v-70h214
		v70H2z M216,86.375v6H2v-6H216z M214,135.375H4c-1.103,0-2-0.896-2-2v-40h214v40C216,134.479,215.104,135.375,214,135.375z"/>
	<g id="Rectangle-4">
		<path fill="#22273D" d="M28.247,5.894c0-0.77,0.624-1.394,1.408-1.394h144.178c0.777,0,1.408,0.628,1.408,1.394v4.213
			c0,0.77-0.624,1.394-1.408,1.394H29.655c-0.777,0-1.408-0.628-1.408-1.394V5.894L28.247,5.894z"/>
	</g>
	<g id="Triangle" opacity="0.44">
		<polygon fill="#D8D8D8" points="21.563,8.174 17.61,10.151 17.61,6.197 		"/>
	</g>
	<g id="Triangle_1_" opacity="0.44">
		<polygon fill="#D8D8D8" points="8.51,8.174 12.463,10.151 12.463,6.197 		"/>
	</g>
</g>
<rect x="125" y="86" fill="#4C97FF" width="24" height="8"/>
<path fill="#979797" d="M143.795,159.215c-24.976,0-45.295-20.318-45.295-45.295c0-24.976,20.319-45.295,45.295-45.295
	s45.295,20.319,45.295,45.295C189.09,138.896,168.771,159.215,143.795,159.215z M143.795,69.625
	c-24.424,0-44.295,19.871-44.295,44.295s19.871,44.295,44.295,44.295c24.425,0,44.295-19.871,44.295-44.295
	S168.22,69.625,143.795,69.625z"/>
<polygon fill="#979797" points="126.243,73.159 125.841,72.243 262.009,12.545 262.41,13.461 261.953,13.662 "/>
<rect x="124.907" y="179.59" transform="matrix(0.946 0.3242 -0.3242 0.946 69.1177 -54.7082)" fill="#979797" width="147.697" height="0.999"/>
<g id="Group-7" transform="translate(184.000000, 5.000000)">
	<g id="Combined-Shape_1_">
		<path fill="#131830" d="M36.9,166.589C22.587,149.1,14,126.744,14,102.383C14,46.356,59.419,0.937,115.445,0.937
			c56.025,0,101.444,45.419,101.444,101.446c0,24.361-8.587,46.717-22.897,64.206H36.9z"/>
	</g>
	<g>
		<path fill="#525668" d="M23.613,64.196h1.152l1.373-4.248h0.023l1.506,4.248h1.092l1.838-5.688h-1.152l-1.211,4.248H28.21
			l-1.44-4.248h-1.15l-1.361,4.248h-0.023l-0.885-2.945c-0.23,0.499-0.459,0.999-0.683,1.502L23.613,64.196z"/>
		<path fill="#525668" d="M31.258,61.353c0-0.416,0.078-0.805,0.233-1.164c0.155-0.36,0.37-0.676,0.642-0.948
			c0.271-0.271,0.592-0.486,0.961-0.642c0.367-0.156,0.764-0.234,1.188-0.234c0.424,0,0.819,0.078,1.188,0.234
			c0.367,0.155,0.688,0.37,0.961,0.642c0.271,0.272,0.484,0.588,0.642,0.948c0.155,0.359,0.233,0.748,0.233,1.164
			s-0.078,0.806-0.233,1.17c-0.155,0.364-0.37,0.68-0.642,0.948c-0.272,0.268-0.594,0.479-0.961,0.636
			c-0.367,0.156-0.766,0.233-1.188,0.233c-0.425,0-0.82-0.077-1.188-0.233c-0.369-0.156-0.688-0.368-0.961-0.636
			c-0.271-0.269-0.484-0.584-0.642-0.948C31.336,62.158,31.258,61.769,31.258,61.353z M32.409,61.353
			c0,0.288,0.044,0.554,0.132,0.798c0.088,0.244,0.212,0.452,0.372,0.624c0.16,0.172,0.356,0.308,0.589,0.408
			c0.23,0.1,0.491,0.149,0.779,0.149c0.287,0,0.548-0.05,0.779-0.149c0.23-0.101,0.429-0.236,0.588-0.408
			c0.16-0.172,0.285-0.38,0.373-0.624c0.088-0.244,0.131-0.51,0.131-0.798s-0.043-0.554-0.131-0.798
			c-0.088-0.244-0.213-0.452-0.373-0.624c-0.159-0.172-0.355-0.309-0.588-0.408c-0.231-0.101-0.492-0.15-0.779-0.15
			c-0.288,0-0.549,0.05-0.779,0.15c-0.232,0.1-0.429,0.236-0.589,0.408c-0.16,0.172-0.284,0.38-0.372,0.624
			C32.453,60.799,32.409,61.064,32.409,61.353z"/>
		<path fill="#525668" d="M38.661,58.508h1.08v0.877h0.024c0.07-0.152,0.168-0.29,0.285-0.414c0.121-0.124,0.256-0.23,0.402-0.318
			c0.146-0.088,0.312-0.158,0.484-0.21c0.177-0.052,0.354-0.078,0.527-0.078c0.176,0,0.336,0.024,0.48,0.072l-0.049,1.164
			c-0.088-0.024-0.176-0.044-0.266-0.061c-0.088-0.016-0.176-0.023-0.264-0.023c-0.527,0-0.934,0.147-1.213,0.443
			c-0.279,0.297-0.42,0.756-0.42,1.38v2.856h-1.08v-5.688H38.661z"/>
		<path fill="#525668" d="M43.102,55.124h1.08v5.856l2.447-2.46h1.5l-2.652,2.58l2.881,3.096h-1.534l-2.642-2.952v2.952h-1.08
			V55.124z"/>
	</g>
	<g enable-background="new    ">
		<g>
			<path fill="#525668" d="M164.29,62.42c0.208,0.312,0.474,0.542,0.798,0.69s0.658,0.222,1.002,0.222
				c0.191,0,0.389-0.029,0.588-0.09c0.199-0.06,0.382-0.149,0.546-0.27c0.164-0.121,0.298-0.269,0.402-0.444
				c0.104-0.176,0.155-0.38,0.155-0.612c0-0.328-0.104-0.577-0.312-0.75c-0.208-0.172-0.466-0.315-0.772-0.432
				c-0.31-0.116-0.646-0.229-1.009-0.336c-0.362-0.108-0.698-0.258-1.009-0.45c-0.309-0.192-0.564-0.45-0.771-0.774
				c-0.209-0.323-0.312-0.762-0.312-1.313c0-0.248,0.057-0.512,0.162-0.792c0.107-0.28,0.277-0.536,0.51-0.769
				c0.232-0.231,0.53-0.426,0.896-0.581c0.363-0.156,0.802-0.234,1.312-0.234c0.465,0,0.908,0.064,1.332,0.192
				c0.427,0.128,0.797,0.388,1.116,0.779l-0.936,0.853c-0.146-0.225-0.351-0.404-0.612-0.54c-0.265-0.136-0.564-0.204-0.9-0.204
				c-0.317,0-0.586,0.042-0.798,0.126s-0.383,0.191-0.51,0.324c-0.129,0.132-0.219,0.273-0.271,0.426
				c-0.054,0.152-0.077,0.292-0.077,0.42c0,0.36,0.104,0.636,0.312,0.828c0.208,0.191,0.466,0.348,0.774,0.468
				c0.308,0.12,0.644,0.229,1.008,0.324c0.363,0.096,0.699,0.229,1.008,0.401c0.31,0.173,0.566,0.404,0.773,0.696
				c0.209,0.292,0.312,0.694,0.312,1.206c0,0.408-0.078,0.776-0.232,1.104c-0.156,0.328-0.365,0.604-0.632,0.827
				c-0.264,0.225-0.573,0.396-0.937,0.517c-0.359,0.12-0.743,0.18-1.151,0.18c-0.544,0-1.06-0.096-1.548-0.288
				c-0.488-0.191-0.876-0.487-1.164-0.888L164.29,62.42z"/>
			<path fill="#525668" d="M171.25,61.748c0,0.248,0.054,0.475,0.162,0.679c0.105,0.203,0.25,0.378,0.426,0.521
				c0.176,0.145,0.38,0.256,0.611,0.336c0.23,0.08,0.473,0.12,0.721,0.12c0.336,0,0.628-0.078,0.876-0.234
				c0.247-0.155,0.476-0.361,0.685-0.617l0.815,0.624c-0.601,0.775-1.44,1.163-2.521,1.163c-0.447,0-0.854-0.075-1.22-0.228
				c-0.362-0.153-0.672-0.362-0.924-0.63c-0.252-0.269-0.444-0.584-0.582-0.948c-0.136-0.364-0.204-0.758-0.204-1.182
				c0-0.424,0.074-0.818,0.225-1.183c0.146-0.363,0.352-0.68,0.609-0.947c0.262-0.269,0.57-0.479,0.932-0.63
				c0.358-0.152,0.752-0.229,1.176-0.229c0.504,0,0.931,0.088,1.279,0.264c0.348,0.177,0.633,0.406,0.855,0.69
				c0.225,0.284,0.386,0.604,0.486,0.96c0.1,0.356,0.147,0.718,0.147,1.086v0.384L171.25,61.748L171.25,61.748z M174.658,60.885
				c-0.009-0.24-0.047-0.46-0.115-0.66c-0.067-0.2-0.17-0.374-0.305-0.522c-0.139-0.147-0.309-0.264-0.513-0.348
				c-0.202-0.084-0.44-0.126-0.714-0.126c-0.264,0-0.506,0.05-0.727,0.149c-0.22,0.101-0.406,0.23-0.559,0.391
				c-0.151,0.161-0.271,0.338-0.354,0.534c-0.084,0.195-0.125,0.39-0.125,0.582H174.658z"/>
			<path fill="#525668" d="M181.174,60.021c-0.2-0.208-0.41-0.366-0.631-0.475c-0.22-0.107-0.48-0.161-0.785-0.161
				c-0.297,0-0.555,0.054-0.772,0.161c-0.222,0.108-0.403,0.257-0.554,0.444c-0.146,0.188-0.26,0.404-0.336,0.648
				c-0.076,0.244-0.112,0.498-0.112,0.762s0.044,0.514,0.132,0.75s0.212,0.442,0.372,0.618c0.159,0.176,0.353,0.313,0.575,0.414
				c0.225,0.1,0.477,0.149,0.757,0.149c0.304,0,0.562-0.054,0.778-0.162c0.218-0.107,0.416-0.266,0.602-0.474l0.768,0.768
				c-0.277,0.312-0.604,0.536-0.977,0.673c-0.373,0.136-0.77,0.203-1.185,0.203c-0.438,0-0.843-0.071-1.206-0.216
				c-0.362-0.144-0.678-0.346-0.939-0.605c-0.266-0.26-0.469-0.572-0.613-0.937c-0.144-0.363-0.215-0.766-0.215-1.206
				c0-0.439,0.071-0.844,0.215-1.212c0.146-0.367,0.347-0.684,0.606-0.948c0.261-0.264,0.57-0.47,0.937-0.617
				c0.363-0.148,0.771-0.223,1.218-0.223c0.415,0,0.813,0.074,1.194,0.223c0.379,0.147,0.709,0.374,0.99,0.678L181.174,60.021z"/>
			<path fill="#525668" d="M187.93,64.196h-1.08V63.32h-0.021c-0.137,0.304-0.373,0.55-0.709,0.738s-0.726,0.281-1.164,0.281
				c-0.279,0-0.543-0.042-0.791-0.126s-0.467-0.214-0.654-0.39c-0.187-0.176-0.338-0.402-0.45-0.678
				c-0.11-0.276-0.168-0.603-0.168-0.979v-3.66h1.08v3.36c0,0.264,0.036,0.49,0.108,0.678s0.168,0.341,0.287,0.456
				c0.121,0.116,0.258,0.2,0.414,0.252c0.154,0.053,0.316,0.078,0.484,0.078c0.227,0,0.434-0.036,0.624-0.107
				c0.192-0.072,0.36-0.187,0.504-0.343c0.146-0.155,0.259-0.354,0.337-0.594c0.079-0.24,0.119-0.523,0.119-0.852v-2.929h1.08
				V64.196z"/>
			<path fill="#525668" d="M189.562,58.508h1.078v0.877h0.024c0.072-0.152,0.168-0.29,0.287-0.414
				c0.121-0.124,0.254-0.23,0.401-0.318c0.147-0.088,0.312-0.158,0.485-0.21c0.175-0.052,0.354-0.078,0.527-0.078
				s0.336,0.024,0.479,0.072l-0.048,1.164c-0.089-0.024-0.177-0.044-0.265-0.061c-0.088-0.016-0.177-0.023-0.265-0.023
				c-0.526,0-0.933,0.147-1.213,0.443c-0.278,0.297-0.42,0.756-0.42,1.38v2.856h-1.08v-5.688H189.562z"/>
			<path fill="#525668" d="M193.834,56.469c0-0.217,0.078-0.402,0.233-0.559c0.154-0.156,0.343-0.233,0.558-0.233
				c0.217,0,0.402,0.077,0.559,0.233c0.157,0.156,0.234,0.342,0.234,0.559c0,0.216-0.078,0.401-0.234,0.558
				c-0.154,0.157-0.342,0.234-0.559,0.234c-0.215,0-0.401-0.078-0.558-0.234C193.912,56.87,193.834,56.685,193.834,56.469z
				 M194.086,58.508h1.08v5.688h-1.08V58.508z"/>
			<path fill="#525668" d="M199.93,59.444h-1.549v2.58c0,0.16,0.004,0.318,0.013,0.474c0.01,0.156,0.038,0.296,0.092,0.42
				c0.052,0.124,0.132,0.225,0.238,0.301c0.108,0.075,0.268,0.113,0.476,0.113c0.128,0,0.26-0.012,0.396-0.036
				c0.138-0.023,0.261-0.067,0.371-0.132v0.984c-0.127,0.072-0.293,0.122-0.498,0.149c-0.203,0.028-0.359,0.042-0.473,0.042
				c-0.417,0-0.738-0.058-0.967-0.174c-0.229-0.115-0.396-0.266-0.504-0.45c-0.107-0.184-0.174-0.39-0.191-0.617
				c-0.021-0.229-0.031-0.458-0.031-0.69v-2.964h-1.248v-0.937h1.248v-1.596h1.08v1.596h1.549L199.93,59.444L199.93,59.444z"/>
			<path fill="#525668" d="M200.649,58.508h1.247l1.686,4.44h0.023l1.613-4.44h1.152l-2.699,6.912
				c-0.096,0.248-0.195,0.475-0.299,0.679c-0.104,0.204-0.229,0.378-0.371,0.521c-0.143,0.145-0.314,0.256-0.52,0.336
				s-0.452,0.12-0.747,0.12c-0.159,0-0.321-0.01-0.483-0.03c-0.164-0.02-0.321-0.062-0.473-0.126l0.131-0.983
				c0.215,0.088,0.43,0.132,0.645,0.132c0.166,0,0.31-0.022,0.423-0.066c0.115-0.044,0.217-0.107,0.3-0.191
				c0.084-0.084,0.151-0.183,0.209-0.294c0.056-0.112,0.109-0.24,0.167-0.385l0.35-0.899L200.649,58.508z"/>
		</g>
	</g>
</g>
<rect x="215.997" y="49" fill="#525668" width="167.003" height="1"/>
<rect x="202" y="79" fill="#525668" width="195.003" height="1"/>
<path fill="#979797" d="M299.445,209.828C242.957,209.828,197,163.871,197,107.383C197,50.894,242.957,4.937,299.445,4.937
	c56.487,0,102.444,45.957,102.444,102.446C401.892,163.871,355.935,209.828,299.445,209.828z M299.445,6.937
	C244.061,6.937,199,51.997,199,107.383c0,55.387,45.061,100.445,100.445,100.445c55.387,0,100.444-45.061,100.444-100.445
	C399.892,51.997,354.832,6.937,299.445,6.937z"/>
<path fill="#525668" d="M220.176,169c0.792,1.018,1.604,2.016,2.434,3h153.675c0.829-0.984,1.642-1.982,2.434-3H220.176z"/>
<polygon fill="#4B97FF" points="250,51 331,51 331,78 250,78 "/>
<g enable-background="new    ">
	<path d="M265.29,67.42c0.208,0.312,0.474,0.542,0.798,0.69s0.658,0.222,1.002,0.222c0.191,0,0.389-0.029,0.588-0.09
		c0.199-0.06,0.383-0.149,0.547-0.27c0.164-0.121,0.297-0.269,0.401-0.444c0.104-0.176,0.155-0.38,0.155-0.612
		c0-0.328-0.104-0.577-0.312-0.75c-0.207-0.172-0.466-0.315-0.773-0.432c-0.309-0.116-0.645-0.229-1.008-0.336
		c-0.362-0.108-0.698-0.258-1.008-0.45c-0.31-0.192-0.565-0.45-0.772-0.774c-0.209-0.323-0.312-0.762-0.312-1.313
		c0-0.248,0.055-0.512,0.161-0.792c0.106-0.28,0.277-0.536,0.511-0.769c0.231-0.231,0.529-0.426,0.896-0.581
		c0.362-0.156,0.802-0.234,1.313-0.234c0.463,0,0.906,0.064,1.332,0.192c0.424,0.128,0.795,0.388,1.114,0.779l-0.937,0.853
		c-0.146-0.225-0.35-0.404-0.611-0.54c-0.266-0.136-0.562-0.204-0.898-0.204c-0.32,0-0.586,0.042-0.8,0.126
		c-0.212,0.084-0.383,0.191-0.51,0.324c-0.129,0.132-0.22,0.273-0.271,0.426c-0.054,0.152-0.078,0.292-0.078,0.42
		c0,0.36,0.104,0.636,0.312,0.828c0.208,0.191,0.467,0.348,0.773,0.468c0.309,0.12,0.645,0.229,1.009,0.324
		c0.362,0.096,0.698,0.229,1.008,0.401c0.31,0.173,0.565,0.404,0.772,0.696c0.209,0.292,0.312,0.694,0.312,1.206
		c0,0.408-0.078,0.776-0.232,1.104c-0.156,0.328-0.365,0.604-0.631,0.827c-0.265,0.225-0.574,0.396-0.938,0.517
		c-0.359,0.12-0.743,0.18-1.151,0.18c-0.544,0-1.06-0.096-1.548-0.288c-0.486-0.191-0.876-0.487-1.164-0.888L265.29,67.42z"/>
	<path d="M274.48,64.444h-1.547v2.58c0,0.16,0.004,0.318,0.012,0.474c0.008,0.156,0.037,0.296,0.09,0.42s0.133,0.225,0.24,0.301
		c0.106,0.075,0.266,0.113,0.475,0.113c0.127,0,0.26-0.012,0.396-0.036c0.135-0.023,0.26-0.067,0.371-0.132v0.984
		c-0.127,0.072-0.293,0.122-0.498,0.149c-0.203,0.028-0.36,0.042-0.475,0.042c-0.417,0-0.736-0.058-0.966-0.174
		c-0.229-0.115-0.396-0.266-0.504-0.45c-0.108-0.184-0.175-0.39-0.192-0.617c-0.021-0.229-0.029-0.458-0.029-0.69v-2.964h-1.248
		v-0.937h1.248v-1.596h1.08v1.596h1.549v0.937H274.48z"/>
	<path d="M275.201,63.508h1.248l1.685,4.44h0.024l1.615-4.44h1.15l-2.699,6.912c-0.097,0.248-0.195,0.475-0.3,0.679
		c-0.104,0.204-0.229,0.378-0.368,0.521c-0.146,0.145-0.316,0.256-0.521,0.336s-0.453,0.12-0.748,0.12
		c-0.158,0-0.32-0.01-0.483-0.03c-0.161-0.02-0.319-0.062-0.472-0.126l0.131-0.983c0.217,0.088,0.432,0.132,0.646,0.132
		c0.166,0,0.307-0.022,0.422-0.066s0.215-0.107,0.299-0.191s0.152-0.183,0.209-0.294c0.055-0.112,0.111-0.24,0.166-0.385l0.35-0.899
		L275.201,63.508z"/>
	<path d="M281.957,60.124h1.08v9.072h-1.08V60.124z"/>
	<path d="M285.568,66.748c0,0.248,0.055,0.475,0.162,0.679c0.107,0.203,0.25,0.378,0.428,0.521c0.176,0.145,0.379,0.256,0.611,0.336
		c0.23,0.08,0.472,0.12,0.719,0.12c0.338,0,0.629-0.078,0.877-0.234c0.248-0.155,0.477-0.361,0.684-0.617l0.816,0.624
		c-0.6,0.775-1.439,1.163-2.52,1.163c-0.449,0-0.854-0.075-1.221-0.228c-0.361-0.152-0.672-0.362-0.924-0.63
		c-0.252-0.269-0.445-0.584-0.582-0.948c-0.137-0.364-0.203-0.758-0.203-1.182s0.072-0.818,0.223-1.183
		c0.146-0.363,0.353-0.68,0.611-0.947c0.26-0.269,0.568-0.479,0.932-0.63c0.357-0.152,0.752-0.229,1.176-0.229
		c0.504,0,0.93,0.088,1.276,0.264c0.349,0.177,0.636,0.406,0.858,0.69c0.223,0.284,0.385,0.604,0.484,0.96
		c0.101,0.356,0.148,0.718,0.148,1.086v0.384L285.568,66.748L285.568,66.748z M288.979,65.885c-0.01-0.24-0.047-0.46-0.114-0.66
		c-0.067-0.2-0.171-0.374-0.306-0.522c-0.137-0.147-0.307-0.264-0.512-0.348c-0.203-0.084-0.441-0.126-0.713-0.126
		c-0.266,0-0.506,0.05-0.727,0.149c-0.223,0.101-0.406,0.23-0.561,0.391c-0.15,0.16-0.271,0.338-0.354,0.534
		c-0.084,0.195-0.125,0.39-0.125,0.582H288.979z"/>
	<path d="M294.449,64.937c-0.127-0.16-0.285-0.294-0.473-0.402c-0.189-0.107-0.42-0.162-0.691-0.162
		c-0.256,0-0.479,0.055-0.666,0.162c-0.188,0.108-0.281,0.267-0.281,0.474c0,0.169,0.055,0.305,0.162,0.408
		c0.107,0.104,0.236,0.188,0.384,0.252c0.148,0.064,0.306,0.112,0.474,0.145c0.168,0.033,0.312,0.06,0.435,0.084
		c0.229,0.056,0.45,0.124,0.651,0.204c0.205,0.08,0.383,0.184,0.529,0.312s0.266,0.284,0.35,0.468
		c0.084,0.185,0.125,0.408,0.125,0.673c0,0.319-0.067,0.594-0.203,0.821c-0.139,0.229-0.312,0.414-0.528,0.559
		c-0.216,0.144-0.462,0.248-0.735,0.312c-0.277,0.064-0.557,0.096-0.834,0.096c-0.475,0-0.889-0.071-1.242-0.216
		c-0.356-0.144-0.676-0.408-0.955-0.792l0.816-0.672c0.176,0.176,0.37,0.332,0.588,0.468c0.217,0.137,0.479,0.204,0.793,0.204
		c0.135,0,0.271-0.014,0.412-0.042c0.141-0.027,0.266-0.071,0.373-0.132c0.105-0.06,0.194-0.136,0.264-0.228
		c0.068-0.092,0.103-0.198,0.103-0.318c0-0.16-0.05-0.292-0.149-0.396c-0.101-0.104-0.221-0.186-0.359-0.245
		c-0.141-0.061-0.287-0.108-0.441-0.145c-0.156-0.037-0.296-0.065-0.414-0.09c-0.232-0.056-0.453-0.12-0.66-0.192
		c-0.209-0.071-0.394-0.168-0.553-0.288c-0.16-0.119-0.287-0.271-0.385-0.456c-0.096-0.184-0.146-0.411-0.146-0.684
		c0-0.296,0.062-0.554,0.188-0.773c0.124-0.221,0.288-0.402,0.491-0.547c0.205-0.144,0.438-0.252,0.695-0.323
		c0.262-0.072,0.521-0.108,0.785-0.108c0.385,0,0.752,0.072,1.104,0.216c0.353,0.145,0.633,0.384,0.841,0.72L294.449,64.937z"/>
	<path d="M296.777,64.204c0.305-0.279,0.656-0.49,1.057-0.63c0.398-0.14,0.799-0.21,1.199-0.21c0.416,0,0.773,0.052,1.074,0.156
		s0.545,0.244,0.738,0.42c0.189,0.176,0.334,0.378,0.426,0.605c0.092,0.229,0.139,0.467,0.139,0.715v2.903
		c0,0.2,0.004,0.384,0.012,0.552c0.008,0.169,0.02,0.328,0.035,0.48h-0.959c-0.023-0.288-0.037-0.576-0.037-0.864h-0.023
		c-0.238,0.368-0.521,0.628-0.852,0.78c-0.329,0.152-0.709,0.228-1.141,0.228c-0.264,0-0.516-0.035-0.756-0.107
		c-0.24-0.072-0.45-0.18-0.631-0.324c-0.182-0.144-0.322-0.322-0.428-0.534s-0.154-0.458-0.154-0.737
		c0-0.368,0.082-0.677,0.246-0.925c0.164-0.247,0.389-0.449,0.672-0.605c0.285-0.156,0.617-0.269,0.996-0.336
		c0.381-0.068,0.786-0.103,1.219-0.103h0.791v-0.239c0-0.145-0.027-0.288-0.084-0.433c-0.057-0.144-0.141-0.273-0.252-0.39
		c-0.111-0.117-0.252-0.208-0.42-0.276c-0.168-0.067-0.367-0.102-0.602-0.102c-0.207,0-0.391,0.02-0.545,0.06
		c-0.156,0.04-0.301,0.09-0.428,0.15c-0.129,0.06-0.242,0.13-0.348,0.21c-0.104,0.08-0.205,0.156-0.301,0.228L296.777,64.204z
		 M299.826,66.46c-0.258,0-0.52,0.015-0.787,0.042c-0.268,0.028-0.512,0.082-0.73,0.162c-0.22,0.08-0.399,0.192-0.541,0.336
		c-0.141,0.145-0.209,0.328-0.209,0.553c0,0.328,0.109,0.563,0.33,0.708c0.219,0.146,0.519,0.216,0.895,0.216
		c0.296,0,0.549-0.05,0.756-0.15c0.209-0.1,0.377-0.229,0.504-0.39c0.129-0.16,0.223-0.338,0.275-0.534
		c0.056-0.196,0.084-0.39,0.084-0.582v-0.36L299.826,66.46L299.826,66.46z"/>
	<path d="M308.682,69.148c0,0.432-0.072,0.826-0.223,1.182c-0.146,0.356-0.357,0.664-0.629,0.924
		c-0.272,0.261-0.602,0.462-0.984,0.606c-0.385,0.144-0.809,0.216-1.271,0.216c-0.546,0-1.043-0.076-1.494-0.228
		c-0.453-0.152-0.883-0.416-1.291-0.792l0.731-0.912c0.278,0.304,0.584,0.534,0.912,0.689c0.328,0.156,0.698,0.234,1.114,0.234
		c0.4,0,0.732-0.059,0.996-0.174c0.266-0.116,0.476-0.267,0.631-0.45c0.156-0.185,0.268-0.395,0.33-0.63
		c0.063-0.236,0.096-0.475,0.096-0.714v-0.84h-0.034c-0.208,0.344-0.49,0.598-0.848,0.762c-0.354,0.164-0.729,0.246-1.121,0.246
		c-0.416,0-0.804-0.074-1.158-0.223c-0.354-0.147-0.662-0.352-0.918-0.611c-0.256-0.259-0.455-0.568-0.601-0.924
		c-0.146-0.356-0.217-0.742-0.217-1.158s0.067-0.806,0.205-1.17c0.135-0.364,0.329-0.683,0.582-0.954
		c0.252-0.272,0.555-0.484,0.909-0.636c0.356-0.152,0.756-0.229,1.195-0.229c0.383,0,0.758,0.084,1.121,0.252
		c0.364,0.168,0.649,0.404,0.858,0.708h0.021v-0.816h1.08v5.642H308.682z M305.729,64.372c-0.287,0-0.547,0.05-0.778,0.15
		c-0.232,0.1-0.429,0.236-0.589,0.408c-0.159,0.172-0.282,0.38-0.37,0.624c-0.091,0.244-0.134,0.51-0.134,0.798
		c0,0.576,0.168,1.038,0.504,1.386c0.337,0.348,0.791,0.522,1.367,0.522s1.032-0.175,1.368-0.522
		c0.336-0.347,0.504-0.81,0.504-1.386c0-0.288-0.044-0.554-0.132-0.798c-0.089-0.244-0.212-0.452-0.372-0.624
		c-0.159-0.172-0.354-0.309-0.588-0.408C306.277,64.422,306.018,64.372,305.729,64.372z"/>
	<path d="M311.129,66.748c0,0.248,0.055,0.475,0.162,0.679c0.108,0.203,0.25,0.378,0.427,0.521c0.176,0.145,0.38,0.256,0.612,0.336
		c0.229,0.08,0.471,0.12,0.719,0.12c0.337,0,0.629-0.078,0.877-0.234c0.248-0.155,0.478-0.361,0.686-0.617l0.814,0.624
		c-0.6,0.775-1.438,1.163-2.52,1.163c-0.449,0-0.855-0.075-1.219-0.228c-0.364-0.152-0.674-0.362-0.926-0.63
		c-0.252-0.269-0.444-0.584-0.582-0.948c-0.137-0.364-0.204-0.758-0.204-1.182s0.073-0.818,0.224-1.183
		c0.146-0.363,0.352-0.68,0.61-0.947c0.262-0.269,0.569-0.479,0.933-0.63c0.357-0.152,0.752-0.229,1.176-0.229
		c0.504,0,0.93,0.088,1.277,0.264c0.348,0.177,0.635,0.406,0.856,0.69c0.225,0.284,0.388,0.604,0.485,0.96
		c0.101,0.356,0.148,0.718,0.148,1.086v0.384L311.129,66.748L311.129,66.748z M314.537,65.885c-0.008-0.24-0.046-0.46-0.113-0.66
		c-0.068-0.2-0.17-0.374-0.307-0.522c-0.137-0.147-0.308-0.264-0.51-0.348c-0.204-0.084-0.441-0.126-0.716-0.126
		c-0.265,0-0.506,0.05-0.726,0.149c-0.221,0.101-0.406,0.23-0.559,0.391c-0.153,0.161-0.271,0.338-0.354,0.534
		c-0.084,0.195-0.127,0.39-0.127,0.582H314.537z"/>
</g>
<circle fill="#FF4C7F" cx="207.98" cy="8.895" r="3"/>
</svg>
