<?xml version="1.0" encoding="utf-8"?>
<!-- Generator: Adobe Illustrator 15.0.0, SVG Export Plug-In . SVG Version: 6.00 Build 0)  -->
<!DOCTYPE svg PUBLIC "-//W3C//DTD SVG 1.1//EN" "http://www.w3.org/Graphics/SVG/1.1/DTD/svg11.dtd">
<svg version="1.1" id="Layer_1" xmlns="http://www.w3.org/2000/svg" xmlns:xlink="http://www.w3.org/1999/xlink" x="0px" y="0px"
	 width="269px" height="189px" viewBox="0 0 269 189" enable-background="new 0 0 269 189" xml:space="preserve">
<g id="Group-5">
	<path id="Rectangle-7" fill="#131830" d="M2.133,0.16h124c1.104,0,2,0.896,2,2v184c0,1.104-0.896,2-2,2h-124c-1.104,0-2-0.896-2-2
		v-184C0.133,1.056,1.028,0.16,2.133,0.16z"/>
	<path id="Line" fill="none" stroke="#4B97FF" stroke-width="3" stroke-linecap="square" d="M8.633,9.66h89.006"/>
	<path id="Line_1_" fill="none" stroke="#FF4C7F" stroke-width="3" stroke-linecap="square" d="M18.633,15.66h34.015"/>
	<path id="Line_2_" fill="none" stroke="#4B97FF" stroke-width="3" stroke-linecap="square" d="M18.633,21.66h52"/>
	<path id="Line_3_" fill="none" stroke="#4B97FF" stroke-width="3" stroke-linecap="square" d="M18.633,27.66h22"/>
	<path id="Line_4_" fill="none" stroke="#4B97FF" stroke-width="3" stroke-linecap="square" d="M8.633,33.66h5.385"/>
	<path id="Line_5_" fill="none" stroke="#4B97FF" stroke-width="3" stroke-linecap="square" d="M8.633,45.66H80.64"/>
	<path id="Line_6_" fill="none" stroke="#4B97FF" stroke-width="3" stroke-linecap="square" d="M18.633,51.66h39.013"/>
	<path id="Line_7_" fill="none" stroke="#4B97FF" stroke-width="3" stroke-linecap="square" d="M18.633,57.66h66"/>
	<path id="Line_8_" fill="none" stroke="#4B97FF" stroke-width="3" stroke-linecap="square" d="M18.633,63.66H86.64"/>
	<path id="Line_9_" fill="none" stroke="#4B97FF" stroke-width="3" stroke-linecap="square" d="M18.633,69.66h32"/>
	<path id="Line_10_" fill="none" stroke="#4B97FF" stroke-width="3" stroke-linecap="square" d="M18.633,75.66h15"/>
	<path id="Line_11_" fill="none" stroke="#4B97FF" stroke-width="3" stroke-linecap="square" d="M8.633,81.66h5.385"/>
	<path id="Line_12_" fill="none" stroke="#4B97FF" stroke-width="3" stroke-linecap="square" d="M8.633,119.66h39"/>
	<path id="Line_13_" fill="none" stroke="#4B97FF" stroke-width="3" stroke-linecap="square" d="M18.633,125.66h53"/>
	<path id="Line_14_" fill="none" stroke="#4B97FF" stroke-width="3" stroke-linecap="square" d="M18.633,131.66h66"/>
	<path id="Line_15_" fill="none" stroke="#FF4C7F" stroke-width="3" stroke-linecap="square" d="M18.633,137.66H86.64"/>
	<path id="Line_16_" fill="none" stroke="#4B97FF" stroke-width="3" stroke-linecap="square" d="M18.633,149.66h15"/>
	<path id="Line_17_" fill="none" stroke="#4B97FF" stroke-width="3" stroke-linecap="square" d="M18.633,143.66h15"/>
	<path id="Line_18_" fill="none" stroke="#4B97FF" stroke-width="3" stroke-linecap="square" d="M8.633,155.66h5.385"/>
	<path id="Line_19_" fill="none" stroke="#FF4C7F" stroke-width="3" stroke-linecap="square" d="M8.633,93.66h30"/>
	<path id="Line_20_" fill="none" stroke="#FF4C7F" stroke-width="3" stroke-linecap="square" d="M18.633,99.66h67"/>
	<path id="Line_21_" fill="none" stroke="#FF4C7F" stroke-width="3" stroke-linecap="square" d="M8.633,107.66h5.385"/>
	<path id="Line_22_" fill="none" stroke="#FF4C7F" stroke-width="3" stroke-linecap="square" d="M8.633,166.66h30"/>
	<path id="Line_23_" fill="none" stroke="#FF4C7F" stroke-width="3" stroke-linecap="square" d="M18.633,172.66h67"/>
	<path id="Line_24_" fill="none" stroke="#FF4C7F" stroke-width="3" stroke-linecap="square" d="M8.633,180.66h5.385"/>
</g>
<g id="Group-5_1_" transform="translate(140.000000, 0.000000)">
	<path id="Rectangle-7_1_" fill="#131830" d="M2.133,0.16h124c1.104,0,2,0.896,2,2v124c0,1.104-0.896,2-2,2h-124
		c-1.104,0-2-0.896-2-2v-124C0.133,1.056,1.028,0.16,2.133,0.16z"/>
	<path id="Line_25_" fill="none" stroke="#4B97FF" stroke-width="3" stroke-linecap="square" d="M8.633,9.66h89.006"/>
	<path id="Line_26_" fill="none" stroke="#4B97FF" stroke-width="3" stroke-linecap="square" d="M18.633,15.66h52"/>
	<path id="Line_27_" fill="none" stroke="#4B97FF" stroke-width="3" stroke-linecap="square" d="M18.633,21.66h22"/>
	<path id="Line_28_" fill="none" stroke="#4B97FF" stroke-width="3" stroke-linecap="square" d="M8.633,27.66h5.385"/>
	<path id="Line_29_" fill="none" stroke="#4B97FF" stroke-width="3" stroke-linecap="square" d="M8.633,39.66H80.64"/>
	<path id="Line_30_" fill="none" stroke="#4B97FF" stroke-width="3" stroke-linecap="square" d="M18.633,45.66h39.013"/>
	<path id="Line_31_" fill="none" stroke="#4B97FF" stroke-width="3" stroke-linecap="square" d="M18.633,51.66h66"/>
	<path id="Line_32_" fill="none" stroke="#4B97FF" stroke-width="3" stroke-linecap="square" d="M18.633,57.66h68.008"/>
	<path id="Line_33_" fill="none" stroke="#4B97FF" stroke-width="3" stroke-linecap="square" d="M18.633,63.66h32"/>
	<path id="Line_34_" fill="none" stroke="#4B97FF" stroke-width="3" stroke-linecap="square" d="M18.633,69.66h15"/>
	<path id="Line_35_" fill="none" stroke="#4B97FF" stroke-width="3" stroke-linecap="square" d="M8.633,75.66h5.385"/>
	<path id="Line_36_" fill="none" stroke="#4B97FF" stroke-width="3" stroke-linecap="square" d="M8.633,88.66h39"/>
	<path id="Line_37_" fill="none" stroke="#4B97FF" stroke-width="3" stroke-linecap="square" d="M18.633,94.66h53.01"/>
	<path id="Line_38_" fill="none" stroke="#4B97FF" stroke-width="3" stroke-linecap="square" d="M18.633,100.66h66"/>
	<path id="Line_39_" fill="none" stroke="#4B97FF" stroke-width="3" stroke-linecap="square" d="M18.633,112.66h15"/>
	<path id="Line_40_" fill="none" stroke="#4B97FF" stroke-width="3" stroke-linecap="square" d="M18.633,106.66h15"/>
	<path id="Line_41_" fill="none" stroke="#4B97FF" stroke-width="3" stroke-linecap="square" d="M8.633,118.66h5.385"/>
</g>
</svg>
