<?xml version="1.0" encoding="utf-8"?>
<!-- Generator: Adobe Illustrator 15.0.0, SVG Export Plug-In . SVG Version: 6.00 Build 0)  -->
<!DOCTYPE svg PUBLIC "-//W3C//DTD SVG 1.1//EN" "http://www.w3.org/Graphics/SVG/1.1/DTD/svg11.dtd" [
	<!ENTITY st0 "fill:#4B97FF;">
	<!ENTITY st1 "fill:#FFFFFF;">
]>
<svg version="1.1" id="Layer_1" xmlns="http://www.w3.org/2000/svg" xmlns:xlink="http://www.w3.org/1999/xlink" x="0px" y="0px"
	 width="227px" height="53px" viewBox="0 0 227 53" style="enable-background:new 0 0 227 53;" xml:space="preserve">
<g id="Logotype" transform="translate(58.000000, 13.000000)">
	<path id="Stylesage" style="&st1;" d="M37.954,8.675h-6.23V2.773h-5.095v5.902h-4.204v4.331h4.204v9.342
		c0,1.188,0.092,2.235,0.276,3.142c0.184,0.905,0.523,1.663,1.019,2.271c0.495,0.608,1.175,1.062,2.038,1.358
		s1.975,0.446,3.333,0.446c0.595,0,1.281-0.05,2.06-0.149c0.778-0.099,1.437-0.275,1.974-0.53v-4.288
		c-0.311,0.227-0.736,0.389-1.274,0.488c-0.538,0.099-1.033,0.148-1.486,0.148c-1.132,0-1.89-0.297-2.271-0.892
		c-0.382-0.595-0.573-1.401-0.573-2.421v-8.916h6.488l6.87,16.22l-0.977,2.42c-0.227,0.538-0.438,0.998-0.637,1.38
		c-0.198,0.383-0.446,0.693-0.743,0.935c-0.297,0.24-0.658,0.417-1.083,0.53c-0.425,0.113-0.948,0.17-1.571,0.17
		c-0.453,0-0.898-0.049-1.337-0.148s-1.017-0.257-1.414-0.398v4.638c1.274,0.34,2.1,0.495,3.431,0.495
		c1.132,0,2.102-0.12,2.908-0.361c0.807-0.24,1.507-0.608,2.102-1.104c0.594-0.496,1.111-1.104,1.55-1.826
		c0.438-0.722,0.842-1.563,1.21-2.525l9.638-24.755h-5.307l-5.095,14.14h-0.085l-5.69-14.14H37.954z M17.814,5.448
		c-0.566-0.821-1.323-1.422-2.271-1.804c-0.949-0.382-1.946-0.573-2.994-0.573c-0.623,0-1.224,0.07-1.805,0.212
		c-0.58,0.142-1.104,0.368-1.571,0.68c-0.467,0.311-0.842,0.715-1.125,1.21C7.766,5.667,7.624,6.254,7.624,6.934
		c0,1.019,0.354,1.797,1.062,2.335c0.708,0.538,1.585,1.005,2.632,1.401c1.047,0.396,2.194,0.778,3.439,1.146
		s2.392,0.877,3.439,1.529c1.047,0.651,1.925,1.514,2.633,2.59c0.708,1.076,1.062,2.505,1.062,4.289
		c0,1.613-0.297,3.021-0.892,4.225c-0.595,1.203-1.395,2.2-2.399,2.993c-1.005,0.792-2.172,1.387-3.503,1.783
		c-1.33,0.396-2.731,0.595-4.203,0.595c-1.869,0-3.666-0.312-5.393-0.935c-1.727-0.622-3.213-1.67-4.458-3.142l4.034-3.906
		c0.651,0.99,1.507,1.762,2.569,2.313s2.187,0.828,3.375,0.828c0.623,0,1.246-0.085,1.869-0.255c0.623-0.17,1.188-0.424,1.698-0.764
		c0.509-0.34,0.92-0.771,1.231-1.295c0.311-0.524,0.467-1.126,0.467-1.805c0-1.104-0.354-1.953-1.062-2.548
		c-0.708-0.595-1.585-1.097-2.632-1.508c-1.047-0.41-2.194-0.8-3.439-1.167c-1.245-0.368-2.392-0.871-3.439-1.508
		s-1.925-1.486-2.633-2.547C2.373,10.522,2.019,9.1,2.019,7.316c0-1.557,0.318-2.901,0.956-4.034
		C3.611,2.15,4.446,1.209,5.479,0.459c1.033-0.75,2.215-1.31,3.545-1.677c1.331-0.368,2.689-0.552,4.076-0.552
		c1.585,0,3.121,0.241,4.607,0.722c1.486,0.481,2.824,1.273,4.013,2.377L17.814,5.448z M59.377-3.044h5.096v32.1h-5.096V-3.044z
		 M71.924,20.648c0.17,1.529,0.765,2.718,1.783,3.566c1.02,0.85,2.251,1.274,3.695,1.274c1.273,0,2.342-0.263,3.205-0.786
		s1.621-1.182,2.271-1.975l3.652,2.761c-1.189,1.472-2.52,2.519-3.992,3.142c-1.472,0.623-3.014,0.935-4.628,0.935
		c-1.528,0-2.972-0.255-4.331-0.765c-1.358-0.51-2.533-1.231-3.523-2.166c-0.991-0.934-1.777-2.059-2.357-3.375
		s-0.87-2.781-0.87-4.395s0.29-3.078,0.87-4.395s1.366-2.441,2.357-3.375c0.99-0.934,2.165-1.656,3.523-2.166
		c1.359-0.51,2.803-0.765,4.331-0.765c1.415,0,2.71,0.248,3.886,0.743c1.174,0.496,2.18,1.21,3.014,2.145
		c0.836,0.934,1.486,2.087,1.953,3.461c0.468,1.372,0.701,2.95,0.701,4.734v1.4H71.924z M82.369,16.827
		c-0.027-1.5-0.495-2.683-1.4-3.545c-0.906-0.863-2.166-1.295-3.779-1.295c-1.528,0-2.738,0.438-3.631,1.316
		c-0.891,0.878-1.436,2.053-1.635,3.524H82.369z"/>
	<path id="Combined-Shape" style="&st1;" d="M90.59,24.045c0.537,1.048,1.33,1.848,2.377,2.399c1.048,0.552,2.152,0.828,3.312,0.828
		c0.537,0,1.076-0.085,1.613-0.255c0.538-0.17,1.02-0.41,1.443-0.722c0.425-0.312,0.771-0.687,1.041-1.126
		c0.269-0.438,0.403-0.94,0.403-1.507c0-0.905-0.29-1.585-0.87-2.038c-0.581-0.453-1.295-0.807-2.145-1.062
		s-1.783-0.474-2.803-0.658c-1.02-0.184-1.953-0.467-2.803-0.849c-0.849-0.383-1.563-0.913-2.144-1.593
		c-0.581-0.679-0.87-1.642-0.87-2.888c0-0.962,0.197-1.797,0.594-2.504c0.396-0.708,0.913-1.295,1.55-1.762
		c0.638-0.467,1.352-0.814,2.145-1.04c0.792-0.227,1.599-0.34,2.42-0.34c1.614,0,3.008,0.297,4.183,0.892
		c1.175,0.594,2.088,1.528,2.738,2.802l-2.293,1.359c-0.48-0.906-1.082-1.592-1.805-2.06c-0.721-0.467-1.662-0.7-2.823-0.7
		c-0.452,0-0.927,0.07-1.423,0.212c-0.494,0.142-0.94,0.34-1.337,0.595s-0.729,0.58-0.998,0.977
		c-0.269,0.396-0.403,0.849-0.403,1.358c0,0.878,0.291,1.528,0.871,1.953s1.295,0.757,2.144,0.998
		c0.85,0.241,1.784,0.446,2.803,0.616s1.953,0.445,2.802,0.828c0.85,0.381,1.564,0.934,2.145,1.655s0.871,1.748,0.871,3.078
		c0,1.02-0.191,1.903-0.574,2.653c-0.382,0.751-0.905,1.381-1.57,1.891c-0.666,0.509-1.423,0.891-2.271,1.146
		c-0.85,0.254-1.741,0.382-2.676,0.382c-1.697,0-3.248-0.325-4.648-0.977c-1.402-0.651-2.484-1.656-3.248-3.015L90.59,24.045z
		 M121.695,20.818c0,0.963,0.008,1.826,0.021,2.59c0.014,0.765,0.035,1.473,0.063,2.123c0.028,0.651,0.063,1.26,0.106,1.826
		s0.105,1.133,0.191,1.698H119.7c-0.17-0.962-0.255-2.024-0.255-3.185h-0.085c-0.735,1.273-1.649,2.208-2.739,2.803
		c-1.09,0.594-2.469,0.892-4.139,0.892c-0.85,0-1.686-0.106-2.506-0.319c-0.82-0.212-1.557-0.551-2.208-1.019
		c-0.651-0.467-1.182-1.068-1.593-1.804c-0.41-0.736-0.615-1.629-0.615-2.676c0-1.5,0.383-2.689,1.146-3.566
		c0.765-0.877,1.705-1.535,2.824-1.975c1.117-0.438,2.307-0.722,3.566-0.85c1.26-0.127,2.371-0.19,3.333-0.19h2.972v-1.188
		c0-1.699-0.523-2.916-1.57-3.652c-1.048-0.736-2.363-1.104-3.949-1.104c-2.265,0-4.26,0.736-5.986,2.208l-1.486-1.741
		c0.934-0.906,2.095-1.592,3.481-2.059c1.388-0.467,2.718-0.701,3.991-0.701c2.378,0,4.274,0.559,5.689,1.677
		c1.416,1.118,2.123,2.922,2.123,5.414V20.818z M116.601,19.205c-1.075,0-2.116,0.07-3.121,0.212s-1.911,0.382-2.718,0.722
		s-1.45,0.793-1.932,1.359c-0.48,0.566-0.722,1.273-0.722,2.123c0,0.594,0.134,1.125,0.403,1.592s0.615,0.85,1.04,1.146
		s0.899,0.523,1.423,0.68c0.523,0.155,1.055,0.233,1.592,0.233c1.359,0,2.477-0.198,3.354-0.595s1.578-0.912,2.103-1.55
		c0.523-0.637,0.884-1.358,1.082-2.165s0.297-1.621,0.297-2.441v-1.316H116.601z M146.008,27.781c0,2.436-0.354,4.402-1.062,5.902
		s-1.592,2.661-2.653,3.482c-1.062,0.82-2.201,1.373-3.418,1.655c-1.218,0.283-2.321,0.425-3.312,0.425
		c-0.99,0-1.96-0.092-2.908-0.275c-0.948-0.185-1.848-0.453-2.696-0.808c-0.849-0.354-1.62-0.785-2.313-1.295
		c-0.693-0.509-1.295-1.09-1.805-1.741l1.995-1.867c0.905,1.273,2.038,2.207,3.397,2.802c1.358,0.595,2.802,0.892,4.33,0.892
		c1.303,0,2.399-0.17,3.291-0.51s1.627-0.785,2.208-1.337c0.58-0.552,1.033-1.161,1.358-1.826c0.326-0.665,0.566-1.33,0.723-1.995
		c0.155-0.666,0.247-1.295,0.275-1.89s0.043-1.075,0.043-1.444v-2.717h-0.086c-0.735,1.189-1.733,2.123-2.993,2.803
		c-1.259,0.679-2.738,1.019-4.437,1.019c-1.443,0-2.803-0.262-4.076-0.786c-1.274-0.523-2.385-1.245-3.334-2.165
		c-0.947-0.92-1.697-1.988-2.25-3.206c-0.552-1.217-0.828-2.519-0.828-3.906c0-1.387,0.276-2.688,0.828-3.906
		c0.553-1.217,1.303-2.278,2.25-3.184c0.949-0.906,2.06-1.627,3.334-2.166c1.273-0.538,2.633-0.807,4.076-0.807
		c1.698,0,3.178,0.34,4.437,1.019c1.26,0.679,2.258,1.613,2.993,2.802h0.086V9.439h2.547V27.781z M143.545,18.992
		c0-1.075-0.205-2.087-0.615-3.035c-0.41-0.949-0.963-1.77-1.656-2.463s-1.514-1.246-2.463-1.656
		c-0.947-0.41-1.96-0.615-3.035-0.615c-1.076,0-2.088,0.205-3.036,0.615c-0.948,0.411-1.769,0.963-2.463,1.656
		c-0.693,0.693-1.245,1.514-1.655,2.463c-0.411,0.948-0.616,1.96-0.616,3.035c0,1.076,0.205,2.088,0.616,3.036
		c0.41,0.948,0.962,1.77,1.655,2.463c0.694,0.693,1.515,1.245,2.463,1.655c0.948,0.411,1.96,0.616,3.036,0.616
		c1.075,0,2.088-0.205,3.035-0.616c0.949-0.41,1.77-0.962,2.463-1.655s1.246-1.515,1.656-2.463S143.545,20.068,143.545,18.992z
		 M167.391,25.361c-0.99,1.5-2.215,2.576-3.673,3.228s-3.063,0.977-4.819,0.977c-1.5,0-2.859-0.255-4.076-0.765
		s-2.264-1.225-3.143-2.145c-0.877-0.92-1.549-2.01-2.016-3.27c-0.468-1.26-0.701-2.653-0.701-4.182c0-1.473,0.24-2.831,0.722-4.076
		c0.481-1.246,1.161-2.328,2.038-3.249c0.878-0.92,1.911-1.642,3.1-2.166c1.189-0.523,2.506-0.785,3.949-0.785
		c1.5,0,2.823,0.262,3.97,0.785c1.146,0.524,2.108,1.217,2.888,2.081c0.777,0.863,1.365,1.847,1.762,2.95
		c0.396,1.104,0.594,2.223,0.594,3.355v1.783h-16.474c0,0.537,0.106,1.224,0.318,2.059c0.212,0.836,0.602,1.648,1.167,2.441
		c0.566,0.793,1.324,1.473,2.271,2.039c0.949,0.565,2.174,0.849,3.674,0.849c1.302,0,2.562-0.312,3.779-0.935
		c1.217-0.623,2.15-1.472,2.802-2.547L167.391,25.361z M165.438,17.592c0-0.878-0.177-1.699-0.531-2.463
		c-0.354-0.765-0.834-1.437-1.443-2.017c-0.608-0.58-1.33-1.04-2.165-1.38s-1.72-0.509-2.653-0.509
		c-1.388,0-2.541,0.283-3.461,0.849c-0.92,0.566-1.648,1.217-2.188,1.954c-0.537,0.735-0.92,1.45-1.146,2.144
		c-0.226,0.693-0.339,1.168-0.339,1.423H165.438z"/>
</g>
<g id="Logomark">
	<path id="_x221E_" style="&st0;" d="M12.039,36.902c-1.146-1.229-1.966-2.554-2.461-3.975c-0.495-1.42-0.718-2.823-0.67-4.209
		c0.048-1.385,0.367-2.702,0.955-3.953c0.588-1.25,1.395-2.354,2.418-3.308c1.638-1.528,3.635-2.449,5.99-2.762
		c2.355-0.314,5.392-0.291,9.111,0.07c-0.049-1.421-0.066-2.825-0.051-4.212c0.016-1.386,0.153-2.727,0.413-4.022
		c0.26-1.295,0.674-2.527,1.244-3.696c0.569-1.169,1.382-2.247,2.44-3.233c1.024-0.955,2.196-1.665,3.517-2.131
		s2.665-0.667,4.033-0.602s2.71,0.392,4.027,0.982c1.317,0.591,2.5,1.449,3.55,2.576c1.083,1.161,1.88,2.426,2.394,3.798
		c0.513,1.372,0.754,2.758,0.721,4.161c-0.032,1.402-0.344,2.761-0.935,4.078c-0.591,1.316-1.466,2.516-2.627,3.598
		c-0.956,0.891-2.019,1.564-3.19,2.018c-1.172,0.455-2.413,0.766-3.723,0.935s-2.666,0.221-4.067,0.155
		c-1.401-0.065-2.825-0.189-4.271-0.372c0.052,1.355,0.079,2.718,0.08,4.089c0.002,1.37-0.111,2.703-0.338,4
		c-0.227,1.296-0.617,2.537-1.17,3.723s-1.376,2.288-2.468,3.307c-1.126,1.051-2.324,1.801-3.595,2.252s-2.557,0.646-3.859,0.584
		c-1.302-0.062-2.594-0.422-3.875-1.077s-2.463-1.563-3.545-2.724L12.039,36.902z M33.262,6.391
		c-0.819,0.764-1.429,1.667-1.828,2.709c-0.4,1.042-0.669,2.139-0.809,3.29s-0.205,2.312-0.196,3.485s0.01,2.304,0.005,3.393
		c1.249,0.176,2.489,0.343,3.722,0.501c1.233,0.159,2.444,0.209,3.635,0.151c1.19-0.057,2.329-0.273,3.415-0.648
		c1.086-0.375,2.09-0.992,3.012-1.851c0.819-0.764,1.41-1.602,1.771-2.514c0.362-0.912,0.502-1.839,0.419-2.784
		c-0.083-0.944-0.331-1.877-0.745-2.799c-0.413-0.922-0.986-1.776-1.718-2.561C42.48,5.26,40.751,4.432,38.759,4.28
		c-1.992-0.152-3.807,0.536-5.446,2.063L33.262,6.391z M25.072,35.277c0.887-0.828,1.524-1.805,1.91-2.93
		c0.386-1.127,0.633-2.298,0.742-3.516c0.108-1.219,0.151-2.422,0.126-3.611c-0.024-1.189-0.021-2.213,0.008-3.071
		c-3.489-0.32-6.268-0.409-8.336-0.266c-2.069,0.143-3.803,0.866-5.202,2.171c-0.819,0.764-1.385,1.594-1.697,2.491
		c-0.312,0.897-0.443,1.817-0.393,2.76c0.049,0.942,0.273,1.851,0.672,2.724c0.399,0.871,0.917,1.649,1.553,2.332
		c1.719,1.843,3.525,2.822,5.42,2.938c1.895,0.116,3.61-0.542,5.146-1.975L25.072,35.277z"/>
	<circle id="path-1_1_" style="&st0;" cx="23.5" cy="27.101" r="22.487"/>
	<path style="&st1;" d="M45.107,20.875c-0.317-1.103-0.716-2.171-1.19-3.198c-0.839,0.721-1.739,1.261-2.71,1.595
		c-1.086,0.375-2.225,0.591-3.415,0.648c-1.191,0.058-2.402,0.007-3.635-0.151c-1.232-0.159-2.473-0.326-3.722-0.501
		c0.005-1.089,0.003-2.221-0.005-3.393s0.057-2.334,0.196-3.485s0.409-2.248,0.809-3.29c0.348-0.907,0.864-1.703,1.53-2.399
		c-1.022-0.475-2.086-0.874-3.184-1.193c-0.298,0.43-0.57,0.869-0.792,1.327c-0.569,1.169-0.984,2.401-1.244,3.696
		c-0.26,1.295-0.397,2.636-0.413,4.022c-0.015,1.387,0.002,2.791,0.051,4.212c-3.719-0.361-6.755-0.385-9.111-0.07
		c-2.355,0.313-4.352,1.234-5.99,2.762c-1.024,0.955-1.83,2.058-2.418,3.308c-0.588,1.251-0.907,2.568-0.955,3.953
		c-0.048,1.386,0.175,2.789,0.67,4.209c0.496,1.421,1.316,2.745,2.461,3.975l0.048,0.051c1.082,1.16,2.264,2.068,3.545,2.724
		s2.573,1.015,3.875,1.077c1.302,0.062,2.588-0.133,3.859-0.584s2.469-1.201,3.595-2.252c1.092-1.019,1.915-2.121,2.468-3.307
		s0.943-2.427,1.17-3.723c0.227-1.297,0.34-2.63,0.338-4c-0.001-1.371-0.028-2.733-0.08-4.089c1.446,0.183,2.87,0.307,4.271,0.372
		c1.401,0.065,2.757,0.014,4.067-0.155s2.551-0.48,3.723-0.935C43.696,21.779,44.423,21.371,45.107,20.875z M27.85,25.221
		c0.025,1.189-0.018,2.393-0.126,3.611c-0.108,1.218-0.356,2.389-0.742,3.516c-0.386,1.125-1.023,2.102-1.91,2.93l-0.051,0.047
		c-1.536,1.433-3.251,2.091-5.146,1.975c-1.895-0.115-3.701-1.095-5.42-2.938c-0.636-0.683-1.154-1.461-1.553-2.332
		c-0.399-0.873-0.623-1.781-0.672-2.724c-0.05-0.942,0.082-1.862,0.393-2.76c0.312-0.897,0.878-1.728,1.697-2.491
		c1.399-1.305,3.133-2.028,5.202-2.171c2.068-0.143,4.847-0.054,8.336,0.266C27.828,23.007,27.825,24.031,27.85,25.221z"/>
</g>
</svg>
